<?xml version="1.0" encoding="utf-8"?>
<!-- Generator: Adobe Illustrator 19.2.0, SVG Export Plug-In . SVG Version: 6.00 Build 0)  -->
<svg version="1.1" id="Layer_1" xmlns="http://www.w3.org/2000/svg" xmlns:xlink="http://www.w3.org/1999/xlink" x="0px" y="0px"
	 viewBox="0 0 68 68" enable-background="new 0 0 68 68" xml:space="preserve">
<path id="eye-icon" fill="#010101" d="M37.9,34c0,2-1.7,3.7-3.7,3.7S30.5,36,30.5,34c0-2,1.7-3.7,3.7-3.7S37.9,32,37.9,34z
	 M56.5,33.2c0,0-8,13.3-22.5,13.3c-13.5,0-22.5-13.3-22.5-13.3S19.8,21.5,34,21.5C48.5,21.5,56.5,33.2,56.5,33.2z M43,34
	c0-4.8-3.9-8.7-8.7-8.7s-8.7,3.9-8.7,8.7c0,4.8,3.9,8.7,8.7,8.7S43,38.8,43,34z"/>
</svg>
